<?xml version="1.0" encoding="UTF-8"?>
<svg version="1.1" xmlns="http://www.w3.org/2000/svg" width="300" height="89">
<path d="M0 0 C2.31 0 4.62 0 7 0 C7.33 3.3 7.66 6.6 8 10 C8.33 9.67 8.66 9.34 9 9 C18.02488231 8.55615333 18.02488231 8.55615333 21 11 C22.51185868 13.27303753 23.73890527 15.56788873 25 18 C25.556875 17.071875 26.11375 16.14375 26.6875 15.1875 C29.07390568 11.89813 30.26441241 10.49423504 34 9 C38.85702302 8.27144655 42.08249355 8.49954194 46.4375 10.875 C49.67325716 13.55831081 51.17972699 14.89863493 52 19 C52.99 17.02 53.98 15.04 55 13 C55.66 13 56.32 13 57 13 C57 12.34 57 11.68 57 11 C59.94909746 9.29822982 61.90288161 8.77369975 65.29296875 8.98828125 C66.4850293 9.05885742 66.4850293 9.05885742 67.70117188 9.13085938 C68.52166016 9.19080078 69.34214844 9.25074219 70.1875 9.3125 C71.43563477 9.38500977 71.43563477 9.38500977 72.70898438 9.45898438 C78.85467253 9.85467253 78.85467253 9.85467253 80 11 C80.09934776 12.68385075 80.1308005 14.37181597 80.1328125 16.05859375 C80.13410156 17.08404297 80.13539063 18.10949219 80.13671875 19.16601562 C80.13285156 20.24560547 80.12898438 21.32519531 80.125 22.4375 C80.12886719 23.51322266 80.13273437 24.58894531 80.13671875 25.69726562 C80.13542969 26.72400391 80.13414062 27.75074219 80.1328125 28.80859375 C80.13168457 29.75532959 80.13055664 30.70206543 80.12939453 31.67749023 C80 34 80 34 79 36 C75.89585298 36.02903577 72.79174091 36.0468107 69.6875 36.0625 C68.36588867 36.07506836 68.36588867 36.07506836 67.01757812 36.08789062 C66.17001953 36.09111328 65.32246094 36.09433594 64.44921875 36.09765625 C63.66893311 36.10289307 62.88864746 36.10812988 62.0847168 36.11352539 C59.43932162 35.96946768 57.52135651 35.38099129 55.375 33.8125 C54 32 54 32 53 26 C47.06 26.33 41.12 26.66 35 27 C38.15122255 27.63024451 41.14358879 28.18652748 44.3125 28.5625 C45.529375 28.706875 46.74625 28.85125 48 29 C48.495 30.485 48.495 30.485 49 32 C47 35 47 35 44 36 C42.16859259 36.09377689 40.33380013 36.12992957 38.5 36.125 C37.5409375 36.12757812 36.581875 36.13015625 35.59375 36.1328125 C32.6243051 35.98076261 30.67182033 35.56846336 28.375 33.625 C27 32 27 32 26 29 C25.01 32.465 25.01 32.465 24 36 C21.69 36 19.38 36 17 36 C16.93941406 34.87980469 16.87882812 33.75960937 16.81640625 32.60546875 C16.73198576 31.13280016 16.64733851 29.66014456 16.5625 28.1875 C16.52318359 27.44951172 16.48386719 26.71152344 16.44335938 25.95117188 C16.25618965 22.76928658 16.01279207 20.03837622 15 17 C12.55519921 17.18828772 12.55519921 17.18828772 10 18 C7.55462298 21.46428411 7.60459673 25.11725895 7.375 29.25 C7.30023438 30.51328125 7.22546875 31.7765625 7.1484375 33.078125 C7.09945312 34.04234375 7.05046875 35.0065625 7 36 C4.69 36 2.38 36 0 36 C0 24.12 0 12.24 0 0 Z M36 17 C35.67 17.66 35.34 18.32 35 19 C37.31 19 39.62 19 42 19 C41.67 18.34 41.34 17.68 41 17 C39.35 17 37.7 17 36 17 Z M61.125 18.1875 C59.56676851 20.69798407 59.50368643 22.09302053 60 25 C61.58333333 27.41666667 61.58333333 27.41666667 64 29 C64.845625 29 65.69125 29 66.5625 29 C67.366875 29 68.17125 29 69 29 C70.65234375 31 70.65234375 31 72 33 C72.0810206 30.89646505 72.13919907 28.79204048 72.1875 26.6875 C72.22230469 25.51574219 72.25710937 24.34398437 72.29296875 23.13671875 C72.26497976 20.04678334 72.26497976 20.04678334 70.67578125 18.10546875 C67.5437375 16.03934199 64.24935771 16.20874012 61.125 18.1875 Z " fill="#404040" transform="translate(138,20)"/>
<path d="M0 0 C2.31 0 4.62 0 7 0 C7 11.88 7 23.76 7 36 C4.69 36 2.38 36 0 36 C-0.05607422 34.55367187 -0.05607422 34.55367187 -0.11328125 33.078125 C-0.17902344 31.81484375 -0.24476563 30.5515625 -0.3125 29.25 C-0.37050781 27.99703125 -0.42851562 26.7440625 -0.48828125 25.453125 C-1.00663275 21.95524161 -1.49020346 20.43704882 -4 18 C-6.54258463 17.49985047 -6.54258463 17.49985047 -9 18 C-11.30662599 19.88659875 -11.30662599 19.88659875 -11.3125 23 C-11.1578125 24.485 -11.1578125 24.485 -11 26 C-7.81237635 28.12508244 -5.73487777 28.5020163 -2 29 C-1.61866701 30.9914056 -1.28674418 32.99279077 -1 35 C-2.63930993 36.63930993 -4.49743674 36.21001367 -6.75 36.25 C-10.96213899 36.2017924 -13.75775755 35.92847705 -17 33 C-17.8125 30.8125 -17.8125 30.8125 -18 29 C-18.66 29 -19.32 29 -20 29 C-20.33 31.31 -20.66 33.62 -21 36 C-24 36 -27 36 -30 36 C-31.051875 36.226875 -32.10375 36.45375 -33.1875 36.6875 C-37.80710393 37.06615606 -40.01481122 36.33095947 -44 34 C-47.71424724 30.19051566 -48.23017291 27.26682429 -48.25 22.125 C-48.18619084 20.41582604 -48.10933663 18.70686635 -48 17 C-51.27773504 17.75150023 -51.27773504 17.75150023 -53 21 C-53.29991069 23.58885171 -53.50865225 26.09149082 -53.625 28.6875 C-53.66367188 29.38939453 -53.70234375 30.09128906 -53.7421875 30.81445312 C-53.8362334 32.54254655 -53.9191968 34.27123675 -54 36 C-56.31 36 -58.62 36 -61 36 C-61 27.42 -61 18.84 -61 10 C-56.38 9.67 -51.76 9.34 -47 9 C-46.67 10.65 -46.34 12.3 -46 14 C-45.5875 13.54625 -45.175 13.0925 -44.75 12.625 C-41.59702267 9.69723533 -39.20297887 8.87499786 -34.9375 8.8125 C-31 9 -31 9 -28 10 C-25.66700175 10.03954234 -23.33291811 10.04401732 -21 10 C-20.505 13.465 -20.505 13.465 -20 17 C-19.2575 16.05125 -18.515 15.1025 -17.75 14.125 C-14.17994444 9.90855556 -14.17994444 9.90855556 -11 9 C-4.02956522 8.48521739 -4.02956522 8.48521739 -1 10 C-0.67 6.7 -0.34 3.4 0 0 Z M-38.875 18.0625 C-40.69848531 21.20294693 -39.8658284 23.5985313 -39 27 C-35.5647952 29.29013653 -34.014669 29.17842973 -30 29 C-29.67 29.99 -29.34 30.98 -29 32 C-28.91892417 30.06318839 -28.86077525 28.1254066 -28.8125 26.1875 C-28.77769531 25.10855469 -28.74289063 24.02960937 -28.70703125 22.91796875 C-28.75083204 20.01314856 -28.75083204 20.01314856 -30.35546875 18.13671875 C-33.27733591 16.11709085 -35.84935412 16.34796734 -38.875 18.0625 Z " fill="#494848" transform="translate(129,20)"/>
<path d="M0 0 C5.23982741 1.17853723 8.69098314 5.18742962 11.765625 9.390625 C16.24350829 16.7195347 16.38542266 25.05976799 14.6015625 33.29296875 C13.42109183 36.52373058 12.03958123 39.51359294 10.4140625 42.54296875 C9.7540625 42.54296875 9.0940625 42.54296875 8.4140625 42.54296875 C8.4140625 43.53296875 8.4140625 44.52296875 8.4140625 45.54296875 C2.00385642 51.39576561 2.00385642 51.39576561 -2.9609375 51.85546875 C-6.5859375 51.54296875 -6.5859375 51.54296875 -8.9609375 49.98046875 C-11.15074588 46.69575619 -11.5859375 44.49042809 -11.5859375 40.54296875 C-8.70109889 34.51103348 -3.35276318 30.12645498 1.4140625 25.54296875 C0.62288346 23.54313341 0.62288346 23.54313341 -0.5859375 21.54296875 C-1.5759375 21.21296875 -2.5659375 20.88296875 -3.5859375 20.54296875 C-3.5859375 19.88296875 -3.5859375 19.22296875 -3.5859375 18.54296875 C-4.5759375 18.21296875 -5.5659375 17.88296875 -6.5859375 17.54296875 C-6.5859375 16.88296875 -6.5859375 16.22296875 -6.5859375 15.54296875 C-7.2459375 15.54296875 -7.9059375 15.54296875 -8.5859375 15.54296875 C-10.81191181 11.22195979 -10.71665577 8.2397985 -9.5859375 3.54296875 C-6.82964238 -0.0318625 -4.31654821 -0.14763439 0 0 Z " fill="#F34A33" transform="translate(42.5859375,27.45703125)"/>
<path d="M0 0 C3.35234564 2.4251011 4.77884572 3.8450832 5.5625 7.9375 C4.13008498 15.73620401 -2.52280085 20.73346236 -8 26 C-7.20882096 27.99983534 -7.20882096 27.99983534 -6 30 C-5.01 30.33 -4.02 30.66 -3 31 C-3 31.66 -3 32.32 -3 33 C-1.515 33.495 -1.515 33.495 0 34 C0 34.66 0 35.32 0 36 C0.66 36 1.32 36 2 36 C3.22691067 38.45382134 3.20175931 40.19984103 3.25 42.9375 C3.27578125 43.81277344 3.3015625 44.68804687 3.328125 45.58984375 C3 48 3 48 1.74609375 49.77734375 C-1.02224544 51.7158005 -3.27867941 51.6575636 -6.5859375 51.5390625 C-11.9104374 50.3500965 -15.48627511 46.35808589 -18.3515625 41.89453125 C-22.33262486 34.261775 -23.101675 26.3982075 -21.375 17.9375 C-16.83534418 8.23914439 -12.04251481 -1.22466252 0 0 Z " fill="#3136FB" transform="translate(27,10)"/>
<path d="M0 0 C3.67626821 3.41367763 5.50526383 6.57381004 5.71875 11.6796875 C5.36899842 16.87349843 4.06467646 20.39082181 0.625 24.4375 C-4.01202711 25.9831757 -8.49971651 25.49485628 -13.375 25.4375 C-13.705 29.0675 -14.035 32.6975 -14.375 36.4375 C-17.015 36.4375 -19.655 36.4375 -22.375 36.4375 C-22.375 24.2275 -22.375 12.0175 -22.375 -0.5625 C-4.97368421 -2.30263158 -4.97368421 -2.30263158 0 0 Z M-13.05078125 7.54296875 C-15.03014056 10.37479549 -14.66360862 12.72100993 -14.5625 16.125 C-14.53542969 17.30449219 -14.50835937 18.48398437 -14.48046875 19.69921875 C-14.44566406 20.60285156 -14.41085938 21.50648437 -14.375 22.4375 C-13.715 21.1175 -13.055 19.7975 -12.375 18.4375 C-11.4675 18.52 -10.56 18.6025 -9.625 18.6875 C-6.3337132 18.71492194 -6.3337132 18.71492194 -4 16.75 C-2.20517484 14.54734777 -2.20517484 14.54734777 -1.9375 11.875 C-2.22014685 9.43823171 -2.22014685 9.43823171 -3.5 7.625 C-6.62435771 5.64624012 -9.9187375 5.47684199 -13.05078125 7.54296875 Z " fill="#454545" transform="translate(269.375,30.5625)"/>
<path d="M0 0 C4.02658297 0.03853189 6.57559577 0.58759645 9.75 3.25 C9.75 3.91 9.75 4.57 9.75 5.25 C10.41 5.25 11.07 5.25 11.75 5.25 C13.15053506 8.05107012 12.9575504 10.43891681 13 13.5625 C13.02578125 14.69300781 13.0515625 15.82351562 13.078125 16.98828125 C12.71360821 20.61175168 11.98873288 22.40116198 9.75 25.25 C5.3069168 28.42091835 -0.03703899 27.37411812 -5.25 27.25 C-5.58 30.88 -5.91 34.51 -6.25 38.25 C-8.89 38.25 -11.53 38.25 -14.25 38.25 C-14.25 26.04 -14.25 13.83 -14.25 1.25 C-11.28 1.25 -8.31 1.25 -5.25 1.25 C-3.68966377 -0.31033623 -2.16052864 0.04292441 0 0 Z M-4.484375 9.828125 C-6.8293074 13.04462519 -6.65745954 15.06351155 -6.5 19 C-6.46390625 20.17046875 -6.4278125 21.3409375 -6.390625 22.546875 C-6.34421875 23.43890625 -6.2978125 24.3309375 -6.25 25.25 C-6.0025 24.610625 -5.755 23.97125 -5.5 23.3125 C-4.25 21.25 -4.25 21.25 -2.375 20.5625 C-1.67375 20.459375 -0.9725 20.35625 -0.25 20.25 C2.99582125 19.64866056 2.99582125 19.64866056 5.3125 17.375 C5.82868345 14.86782322 5.7397362 13.61014017 4.75 11.25 C3.52045984 9.43700508 3.52045984 9.43700508 1.75 8.25 C-2.16137545 7.86539504 -2.16137545 7.86539504 -4.484375 9.828125 Z " fill="#434343" transform="translate(233.25,28.75)"/>
<path d="M0 0 C2.31 0 4.62 0 7 0 C7 11.88 7 23.76 7 36 C4.69 36 2.38 36 0 36 C-0.03738281 35.03578125 -0.07476562 34.0715625 -0.11328125 33.078125 C-0.17902344 31.81484375 -0.24476563 30.5515625 -0.3125 29.25 C-0.37050781 27.99703125 -0.42851562 26.7440625 -0.48828125 25.453125 C-1.00663275 21.95524161 -1.49020346 20.43704882 -4 18 C-6.54258463 17.49985047 -6.54258463 17.49985047 -9 18 C-11.30662599 19.88659875 -11.30662599 19.88659875 -11.3125 23 C-11.209375 23.99 -11.10625 24.98 -11 26 C-7.81237635 28.12508244 -5.73487777 28.5020163 -2 29 C-1.61866701 30.9914056 -1.28674418 32.99279077 -1 35 C-2.63930993 36.63930993 -4.49743674 36.21001367 -6.75 36.25 C-11.47750048 36.21618383 -14.56915521 35.43084479 -18 32 C-18.33333333 29.66666667 -18.66666667 27.33333333 -19 25 C-19.33 24.67 -19.66 24.34 -20 24 C-20.37794846 20.78743812 -20.66110143 18.16882733 -19.0234375 15.2734375 C-16.72753998 12.41412955 -14.54866923 10.0139055 -11 9 C-4.02956522 8.48521739 -4.02956522 8.48521739 -1 10 C-0.67 6.7 -0.34 3.4 0 0 Z " fill="#3F3F3F" transform="translate(129,20)"/>
<path d="M0 0 C1.19206055 0.07057617 1.19206055 0.07057617 2.40820312 0.14257812 C3.22869141 0.20251953 4.04917969 0.26246094 4.89453125 0.32421875 C6.14266602 0.39672852 6.14266602 0.39672852 7.41601562 0.47070312 C13.56170378 0.86639128 13.56170378 0.86639128 14.70703125 2.01171875 C14.80637901 3.6955695 14.83783175 5.38353472 14.83984375 7.0703125 C14.84177734 8.60848633 14.84177734 8.60848633 14.84375 10.17773438 C14.83988281 11.25732422 14.83601563 12.33691406 14.83203125 13.44921875 C14.83783203 15.06280273 14.83783203 15.06280273 14.84375 16.70898438 C14.84246094 17.73572266 14.84117187 18.76246094 14.83984375 19.8203125 C14.83871582 20.76704834 14.83758789 21.71378418 14.83642578 22.68920898 C14.70703125 25.01171875 14.70703125 25.01171875 13.70703125 27.01171875 C10.60288423 27.04075452 7.49877216 27.05852945 4.39453125 27.07421875 C3.07291992 27.08678711 3.07291992 27.08678711 1.72460938 27.09960938 C0.87705078 27.10283203 0.02949219 27.10605469 -0.84375 27.109375 C-2.01417847 27.11723022 -2.01417847 27.11723022 -3.20825195 27.12524414 C-5.85823714 26.98093648 -7.75943732 26.42609924 -9.8671875 24.7890625 C-11.70762281 22.49482122 -12.32605764 20.40390343 -13.10546875 17.57421875 C-13.38003906 16.62675781 -13.65460938 15.67929687 -13.9375 14.703125 C-14.34245144 11.63706406 -13.92687781 10.57132373 -12.29296875 8.01171875 C-11.92171875 7.26921875 -11.55046875 6.52671875 -11.16796875 5.76171875 C-10.87921875 5.18421875 -10.59046875 4.60671875 -10.29296875 4.01171875 C-9.63296875 4.01171875 -8.97296875 4.01171875 -8.29296875 4.01171875 C-8.29296875 3.35171875 -8.29296875 2.69171875 -8.29296875 2.01171875 C-5.34387129 0.30994857 -3.39008714 -0.2145815 0 0 Z M-4.16796875 9.19921875 C-5.72620024 11.70970282 -5.78928232 13.10473928 -5.29296875 16.01171875 C-3.70963542 18.42838542 -3.70963542 18.42838542 -1.29296875 20.01171875 C-0.44734375 20.01171875 0.39828125 20.01171875 1.26953125 20.01171875 C2.07390625 20.01171875 2.87828125 20.01171875 3.70703125 20.01171875 C5.359375 22.01171875 5.359375 22.01171875 6.70703125 24.01171875 C6.78805185 21.9081838 6.84623032 19.80375923 6.89453125 17.69921875 C6.92933594 16.52746094 6.96414062 15.35570312 7 14.1484375 C6.97201101 11.05850209 6.97201101 11.05850209 5.3828125 9.1171875 C2.25076875 7.05106074 -1.04361104 7.22045887 -4.16796875 9.19921875 Z " fill="#444444" transform="translate(203.29296875,28.98828125)"/>
<path d="M0 0 C3 1.5 3 1.5 5 3 C4.67 4.65 4.34 6.3 4 8 C3.34 8 2.68 8 2 8 C2.5048177 11.05310405 2.5048177 11.05310405 4.5625 13.25 C6.5738382 15.69858563 6.48710314 17.97555331 6.328125 21.05859375 C6 23 6 23 4.6875 25.5 C0.38042777 27.90394729 -4.17826534 27.60980762 -9 27 C-11.34375 25.9765625 -11.34375 25.9765625 -13 25 C-13.1875 22.625 -13.1875 22.625 -13 20 C-10 18 -10 18 -7 18 C-7 18.66 -7 19.32 -7 20 C-5.68 19.67 -4.36 19.34 -3 19 C-3.62648438 18.75765625 -4.25296875 18.5153125 -4.8984375 18.265625 C-5.71570313 17.93046875 -6.53296875 17.5953125 -7.375 17.25 C-8.18710937 16.92515625 -8.99921875 16.6003125 -9.8359375 16.265625 C-12.38045735 14.77749426 -13.01628113 13.74185473 -14 11 C-14.375 8 -14.375 8 -14 5 C-9.99442233 0.05978754 -6.21158342 -0.71260995 0 0 Z M-6 8 C-5.34 8.66 -4.68 9.32 -4 10 C-3.01 10 -2.02 10 -1 10 C-1 9.34 -1 8.68 -1 8 C-2.65 8 -4.3 8 -6 8 Z " fill="#474646" transform="translate(289,29)"/>
<path d="M0 0 C3.35234564 2.4251011 4.77884572 3.8450832 5.5625 7.9375 C4.22544718 15.2170098 -2.23045943 21.68300221 -8 26 C-10.41720832 25.79418697 -11.84036634 25.07981683 -14 24 C-17 18.69230769 -17 18.69230769 -17 15 C-17.66 15 -18.32 15 -19 15 C-17.6702786 9.54814227 -15.06552973 5.7737453 -11 2 C-7.23222333 -0.23688516 -4.38703937 -0.53875922 0 0 Z " fill="#528DFB" transform="translate(27,10)"/>
<path d="M0 0 C3.43755484 1.72233596 5.18205673 4.57443949 6.88671875 7.9453125 C7.54407129 10.67951798 7.73788237 13.11742133 7.88671875 15.9453125 C6.89671875 16.2753125 5.90671875 16.6053125 4.88671875 16.9453125 C4.88671875 17.9353125 4.88671875 18.9253125 4.88671875 19.9453125 C-1.52348733 25.79810936 -1.52348733 25.79810936 -6.48828125 26.2578125 C-10.11328125 25.9453125 -10.11328125 25.9453125 -12.48828125 24.3828125 C-14.67808963 21.09809994 -15.11328125 18.89277184 -15.11328125 14.9453125 C-13.89551569 12.39907542 -12.94925546 11.00483797 -11.11328125 8.9453125 C-10.40945312 8.14996094 -9.705625 7.35460938 -8.98046875 6.53515625 C-2.79177403 -0.07224554 -2.79177403 -0.07224554 0 0 Z " fill="#EBB834" transform="translate(46.11328125,53.0546875)"/>
<path d="M0 0 C1.38594529 0.00031696 2.77191535 0.01163319 4.15771484 0.03173828 C4.88735443 0.03456818 5.61699402 0.03739807 6.3687439 0.04031372 C8.70221262 0.05152076 11.03529937 0.07662568 13.36865234 0.10205078 C14.94937597 0.11207993 16.53010561 0.1212059 18.11083984 0.12939453 C21.98859149 0.15146173 25.86605712 0.18599463 29.74365234 0.22705078 C30.40365234 2.20705078 31.06365234 4.18705078 31.74365234 6.22705078 C28.86496152 9.10574161 21.68368366 8.1689044 17.74365234 8.22705078 C10.07053391 8.07946569 2.40521486 7.6600572 -5.25634766 7.22705078 C-5.38134766 4.85205078 -5.38134766 4.85205078 -5.25634766 2.22705078 C-3.25634766 0.22705078 -3.25634766 0.22705078 0 0 Z M7.74365234 4.22705078 C11.74365234 5.22705078 11.74365234 5.22705078 11.74365234 5.22705078 Z " fill="#F35946" transform="translate(186.25634765625,59.77294921875)"/>
<path d="M0 0 C4.29 0 8.58 0 13 0 C13.33 2.31 13.66 4.62 14 7 C13.38125 7.103125 12.7625 7.20625 12.125 7.3125 C9.63473516 7.87525373 9.63473516 7.87525373 8 11 C7.70008931 13.58885171 7.49134775 16.09149082 7.375 18.6875 C7.33632812 19.38939453 7.29765625 20.09128906 7.2578125 20.81445312 C7.1637666 22.54254655 7.0808032 24.27123675 7 26 C4.69 26 2.38 26 0 26 C0 17.42 0 8.84 0 0 Z " fill="#3E3E3E" transform="translate(68,30)"/>
<path d="M0 0 C1.35434391 0.03544078 2.70855226 0.07674048 4.0625 0.125 C5.0525 0.125 6.0425 0.125 7.0625 0.125 C11.0625 0.125 15.0625 0.125 19.0625 0.125 C18.7325 1.775 18.4025 3.425 18.0625 5.125 C18.7225 5.125 19.3825 5.125 20.0625 5.125 C20.0625 6.445 20.0625 7.765 20.0625 9.125 C19.0725 9.125 18.0825 9.125 17.0625 9.125 C17.0625 8.465 17.0625 7.805 17.0625 7.125 C16.4025 7.125 15.7425 7.125 15.0625 7.125 C15.0625 6.465 15.0625 5.805 15.0625 5.125 C14.4025 5.125 13.7425 5.125 13.0625 5.125 C13.0625 5.785 13.0625 6.445 13.0625 7.125 C11.41742782 7.31906478 9.77140406 7.50507935 8.125 7.6875 C6.75021484 7.84412109 6.75021484 7.84412109 5.34765625 8.00390625 C4.59355469 8.04386719 3.83945313 8.08382812 3.0625 8.125 C2.7325 7.795 2.4025 7.465 2.0625 7.125 C-0.60808851 6.98384839 -3.26182238 7.08252893 -5.9375 7.125 C-6.0625 4.75 -6.0625 4.75 -5.9375 2.125 C-3.9375 0.125 -3.9375 0.125 0 0 Z M-2.9375 3.125 C-3.2675 3.785 -3.5975 4.445 -3.9375 5.125 C-2.6175 4.795 -1.2975 4.465 0.0625 4.125 C-0.9275 3.795 -1.9175 3.465 -2.9375 3.125 Z " fill="#EC7C6F" transform="translate(136.9375,59.875)"/>
<path d="M0 0 C1.17691406 0.01160156 2.35382813 0.02320313 3.56640625 0.03515625 C5.32791016 0.04869141 5.32791016 0.04869141 7.125 0.0625 C8.11628906 0.07410156 9.10757813 0.08570313 10.12890625 0.09765625 C10.78890625 0.09765625 11.44890625 0.09765625 12.12890625 0.09765625 C14.46382264 0.41971368 16.79733133 0.75223774 19.12890625 1.09765625 C19.12890625 3.07765625 19.12890625 5.05765625 19.12890625 7.09765625 C14.63722797 8.29366526 10.39620832 8.01622665 5.81640625 7.66015625 C4.70555664 7.5818457 4.70555664 7.5818457 3.57226562 7.50195312 C1.75737916 7.37315473 -0.056927 7.23622363 -1.87109375 7.09765625 C-2.53109375 5.11765625 -3.19109375 3.13765625 -3.87109375 1.09765625 C-2.87109375 0.09765625 -2.87109375 0.09765625 0 0 Z M4.12890625 3.09765625 C4.12890625 3.75765625 4.12890625 4.41765625 4.12890625 5.09765625 C4.78890625 5.09765625 5.44890625 5.09765625 6.12890625 5.09765625 C6.12890625 4.43765625 6.12890625 3.77765625 6.12890625 3.09765625 C5.46890625 3.09765625 4.80890625 3.09765625 4.12890625 3.09765625 Z " fill="#F37B6B" transform="translate(70.87109375,59.90234375)"/>
<path d="M0 0 C5.28 0 10.56 0 16 0 C16.66 1.32 17.32 2.64 18 4 C18.66 4.33 19.32 4.66 20 5 C20 6.32 20 7.64 20 9 C19.01 9 18.02 9 17 9 C17 8.34 17 7.68 17 7 C15.2984375 7.2784375 15.2984375 7.2784375 13.5625 7.5625 C8.92303203 8.16007011 4.60427319 7.69277259 0 7 C0 4.69 0 2.38 0 0 Z " fill="#F25B48" transform="translate(91,60)"/>
<path d="M0 0 C4.33333333 0 8.66666667 0 13 0 C13 1.65 13 3.3 13 5 C13.66 5 14.32 5 15 5 C15 3.35 15 1.7 15 0 C16.99954746 -0.04254356 19.00041636 -0.04080783 21 0 C22 1 22 1 22 7 C15.4 7 8.8 7 2 7 C1.34 4.69 0.68 2.38 0 0 Z M8 3 C7.67 3.66 7.34 4.32 7 5 C7.99 4.67 8.98 4.34 10 4 C9.34 3.67 8.68 3.34 8 3 Z " fill="#F17160" transform="translate(158,60)"/>
<path d="M0 0 C5.61 0 11.22 0 17 0 C17.66 1.98 18.32 3.96 19 6 C17.12175109 7.87824891 13.96064724 7.39102397 11.4375 7.5625 C10.23996094 7.64628906 9.04242188 7.73007813 7.80859375 7.81640625 C6.88175781 7.87699219 5.95492187 7.93757813 5 8 C4.67 6.68 4.34 5.36 4 4 C2.68 4.33 1.36 4.66 0 5 C-0.33 4.01 -0.66 3.02 -1 2 C-0.67 1.34 -0.34 0.68 0 0 Z " fill="#F36755" transform="translate(199,60)"/>
<path d="M0 0 C1.7325 0.061875 1.7325 0.061875 3.5 0.125 C4.16 0.125 4.82 0.125 5.5 0.125 C7.16666667 0.125 8.83333333 0.125 10.5 0.125 C11.9606285 2.77238916 12.5 4.01948334 12.5 7.125 C6.56 7.125 0.62 7.125 -5.5 7.125 C-5.5 0.19642857 -5.5 0.19642857 0 0 Z M-2.5 3.125 C-2.83 3.785 -3.16 4.445 -3.5 5.125 C-2.51 5.125 -1.52 5.125 -0.5 5.125 C-0.5 4.465 -0.5 3.805 -0.5 3.125 C-1.16 3.125 -1.82 3.125 -2.5 3.125 Z " fill="#F15B48" transform="translate(117.5,59.875)"/>
<path d="M0 0 C2.31 0.33 4.62 0.66 7 1 C7 2.98 7 4.96 7 7 C2.74433453 8.16063604 -0.6835078 7.76173392 -5 7 C-4.34 6.01 -3.68 5.02 -3 4 C-2.34 4.33 -1.68 4.66 -1 5 C-0.67 3.35 -0.34 1.7 0 0 Z " fill="#F18B80" transform="translate(83,60)"/>
<path d="M0 0 C2.64 0 5.28 0 8 0 C8.28875 0.639375 8.5775 1.27875 8.875 1.9375 C9.82823451 4.15206079 9.82823451 4.15206079 12 5 C12 6.32 12 7.64 12 9 C11.01 9 10.02 9 9 9 C9 8.34 9 7.68 9 7 C6.36 7.33 3.72 7.66 1 8 C1.66 7.01 2.32 6.02 3 5 C3 4.34 3 3.68 3 3 C2.34 3 1.68 3 1 3 C0.67 2.01 0.34 1.02 0 0 Z " fill="#F06A5B" transform="translate(99,60)"/>
<path d="M0 0 C1.99954746 -0.04254356 4.00041636 -0.04080783 6 0 C7 1 7 1 7.0625 4.0625 C7.041875 5.031875 7.02125 6.00125 7 7 C3.7 7 0.4 7 -3 7 C-3 5.35 -3 3.7 -3 2 C-2.67 2.99 -2.34 3.98 -2 5 C-1.34 5 -0.68 5 0 5 C0 3.35 0 1.7 0 0 Z " fill="#EE6757" transform="translate(173,60)"/>
<path d="M0 0 C0 0.33 0 0.66 0 1 C-1.010625 1.020625 -2.02125 1.04125 -3.0625 1.0625 C-7.33092381 1.70711911 -9.7968027 3.70238256 -12.68359375 6.828125 C-15.40689239 11.32116371 -14.60772503 16.36801438 -13.46875 21.30078125 C-13.3140625 21.86152344 -13.159375 22.42226563 -13 23 C-13.66 23 -14.32 23 -15 23 C-15.55941359 21.25559202 -16.09691897 19.50414743 -16.625 17.75 C-16.92664063 16.77546875 -17.22828125 15.8009375 -17.5390625 14.796875 C-18.06114078 11.6290102 -17.71141021 10.63649682 -16 8 C-15.62875 7.2575 -15.2575 6.515 -14.875 5.75 C-14.58625 5.1725 -14.2975 4.595 -14 4 C-13.34 4 -12.68 4 -12 4 C-12 3.34 -12 2.68 -12 2 C-8.09971775 -0.60018816 -4.52565431 -0.15085514 0 0 Z " fill="#686365" transform="translate(207,29)"/>
<path d="M0 0 C1.27617187 0.02320313 2.55234375 0.04640625 3.8671875 0.0703125 C5.78917969 0.09738281 5.78917969 0.09738281 7.75 0.125 C9.23113281 0.15980469 9.23113281 0.15980469 10.7421875 0.1953125 C7.7421875 2.1953125 7.7421875 2.1953125 4.7421875 3.1953125 C4.4121875 3.8553125 4.0821875 4.5153125 3.7421875 5.1953125 C2.9996875 5.1540625 2.2571875 5.1128125 1.4921875 5.0703125 C-1.34540202 5.19929384 -2.84555188 5.76582472 -5.2578125 7.1953125 C-5.3828125 4.8203125 -5.3828125 4.8203125 -5.2578125 2.1953125 C-3.2578125 0.1953125 -3.2578125 0.1953125 0 0 Z " fill="#F46C5B" transform="translate(186.2578125,59.8046875)"/>
<path d="M0 0 C0.33 0 0.66 0 1 0 C1 5.28 1 10.56 1 16 C-11.625 16.125 -11.625 16.125 -15 15 C-15.33 14.01 -15.66 13.02 -16 12 C-15.34 12.309375 -14.68 12.61875 -14 12.9375 C-10.29523985 14.24960255 -6.90736009 14.60264135 -3 15 C-3.33 12.69 -3.66 10.38 -4 8 C-3.01 8.99 -2.02 9.98 -1 11 C-0.67 7.37 -0.34 3.74 0 0 Z " fill="#646363" transform="translate(210,40)"/>
<path d="M0 0 C3.125 0.375 3.125 0.375 6 1 C6 1.99 6 2.98 6 4 C6.66 4.33 7.32 4.66 8 5 C7.34 5 6.68 5 6 5 C6 5.66 6 6.32 6 7 C3.36 7 0.72 7 -2 7 C-2.125 4.625 -2.125 4.625 -2 2 C-1.34 1.34 -0.68 0.68 0 0 Z M1 3 C0.67 3.66 0.34 4.32 0 5 C1.32 4.67 2.64 4.34 4 4 C3.01 3.67 2.02 3.34 1 3 Z " fill="#F37258" transform="translate(133,60)"/>
<path d="M0 0 C1.65 0 3.3 0 5 0 C6.4606285 2.64738916 7 3.89448334 7 7 C4.125 7.125 4.125 7.125 1 7 C0.34 6.34 -0.32 5.68 -1 5 C-0.625 2.375 -0.625 2.375 0 0 Z " fill="#E87D70" transform="translate(123,60)"/>
<path d="M0 0 C2.97 0 5.94 0 9 0 C9 0.99 9 1.98 9 3 C8.01 3 7.02 3 6 3 C6 4.32 6 5.64 6 7 C6.66 7.33 7.32 7.66 8 8 C6.68 7.67 5.36 7.34 4 7 C4 6.01 4 5.02 4 4 C2.68 4.33 1.36 4.66 0 5 C-0.33 4.01 -0.66 3.02 -1 2 C-0.67 1.34 -0.34 0.68 0 0 Z " fill="#F28D77" transform="translate(199,60)"/>
<path d="M0 0 C-1.53218685 3.63061667 -3.7183144 5.9863773 -6.5 8.75 C-7.69109375 9.94882812 -7.69109375 9.94882812 -8.90625 11.171875 C-11 13 -11 13 -13 13 C-11.46781315 9.36938333 -9.2816856 7.0136227 -6.5 4.25 C-5.7059375 3.45078125 -4.911875 2.6515625 -4.09375 1.828125 C-2 0 -2 0 0 0 Z " fill="#EBB64B" transform="translate(46,53)"/>
<path d="M0 0 C3 2 3 2 5 5 C5.1953125 7.48046875 5.1953125 7.48046875 5.125 10.1875 C5.10695312 11.08855469 5.08890625 11.98960938 5.0703125 12.91796875 C5.03550781 13.94857422 5.03550781 13.94857422 5 15 C4.01 15 3.02 15 2 15 C1.93941406 14.25234375 1.87882813 13.5046875 1.81640625 12.734375 C1.73261719 11.74953125 1.64882812 10.7646875 1.5625 9.75 C1.48128906 8.77546875 1.40007812 7.8009375 1.31640625 6.796875 C1.04925416 4.43538247 0.64628032 2.28098935 0 0 Z " fill="#585858" transform="translate(159,33)"/>
<path d="M0 0 C2.97 0 5.94 0 9 0 C8.67 2.31 8.34 4.62 8 7 C7.13375 6.319375 7.13375 6.319375 6.25 5.625 C4.2199667 4.15886484 2.26460157 3.05142216 0 2 C0 1.34 0 0.68 0 0 Z " fill="#F58A7D" transform="translate(162,60)"/>
<path d="M0 0 C1.65 0 3.3 0 5 0 C5 1.32 5 2.64 5 4 C6.32 4 7.64 4 9 4 C9 4.66 9 5.32 9 6 C5.625 6.125 5.625 6.125 2 6 C1.34 5.34 0.68 4.68 0 4 C0.66 3.67 1.32 3.34 2 3 C1.34 2.67 0.68 2.34 0 2 C0 1.34 0 0.68 0 0 Z " fill="#F2614F" transform="translate(194,61)"/>
<path d="M0 0 C1.670625 0.061875 1.670625 0.061875 3.375 0.125 C1.98304085 2.9089183 0.21924221 3.10398997 -2.625 4.125 C-2.625 5.115 -2.625 6.105 -2.625 7.125 C-3.615 7.125 -4.605 7.125 -5.625 7.125 C-5.75 4.75 -5.75 4.75 -5.625 2.125 C-3.625 0.125 -3.625 0.125 0 0 Z " fill="#F47869" transform="translate(117.625,59.875)"/>
<path d="M0 0 C1.98 0 3.96 0 6 0 C6 0.33 6 0.66 6 1 C4.35 1 2.7 1 1 1 C1 2.65 1 4.3 1 6 C1.66 6 2.32 6 3 6 C3 4.68 3 3.36 3 2 C3.99 2.33 4.98 2.66 6 3 C5.67 4.65 5.34 6.3 5 8 C3.35 7.67 1.7 7.34 0 7 C0 4.69 0 2.38 0 0 Z " fill="#F48E83" transform="translate(91,60)"/>
<path d="M0 0 C4.62 0 9.24 0 14 0 C11 2 11 2 8 3 C7.67 3.66 7.34 4.32 7 5 C6.34 5 5.68 5 5 5 C5 3.68 5 2.36 5 1 C4.34 1 3.68 1 3 1 C2.67 1.66 2.34 2.32 2 3 C2 2.34 2 1.68 2 1 C1.34 0.67 0.68 0.34 0 0 Z " fill="#EB938A" transform="translate(183,60)"/>
<path d="M0 0 C1.65 0 3.3 0 5 0 C5 1.98 5 3.96 5 6 C4.01 6 3.02 6 2 6 C2 5.34 2 4.68 2 4 C1.34 4 0.68 4 0 4 C0 2.68 0 1.36 0 0 Z " fill="#F16150" transform="translate(85,61)"/>
<path d="M0 0 C1.65 0 3.3 0 5 0 C5.33 2.31 5.66 4.62 6 7 C4.35 7.33 2.7 7.66 1 8 C1.66 7.01 2.32 6.02 3 5 C3 4.34 3 3.68 3 3 C2.34 3 1.68 3 1 3 C0.67 2.01 0.34 1.02 0 0 Z " fill="#EE8E84" transform="translate(99,60)"/>
<path d="M0 0 C2.31 0.33 4.62 0.66 7 1 C6.39816251 3.02045442 5.72693904 5.02111039 5 7 C4.01 7.495 4.01 7.495 3 8 C2.87625 6.865625 2.7525 5.73125 2.625 4.5625 C2.41875 3.386875 2.2125 2.21125 2 1 C1.34 0.67 0.68 0.34 0 0 Z " fill="#EC8478" transform="translate(137,60)"/>
<path d="M0 0 C-1.66666667 3.33333333 -3.33333333 6.66666667 -5 10 C-5.33 10 -5.66 10 -6 10 C-6.33663062 6.29706315 -6.47736015 4.60465619 -4.125 1.625 C-2 0 -2 0 0 0 Z " fill="#5B5B5B" transform="translate(281,30)"/>
<path d="M0 0 C0.66 0 1.32 0 2 0 C2 0.99 2 1.98 2 3 C2.66 3.33 3.32 3.66 4 4 C3.34 4 2.68 4 2 4 C2 4.66 2 5.32 2 6 C0.02 6 -1.96 6 -4 6 C-4 5.34 -4 4.68 -4 4 C-2.68 4 -1.36 4 0 4 C0 2.68 0 1.36 0 0 Z " fill="#F15744" transform="translate(137,61)"/>
<path d="M0 0 C1.32 0.33 2.64 0.66 4 1 C4.33 2.65 4.66 4.3 5 6 C3.35 6 1.7 6 0 6 C0 4.02 0 2.04 0 0 Z " fill="#F45542" transform="translate(175,61)"/>
<path d="M0 0 C0.99 0 1.98 0 3 0 C2 3 2 3 0 5 C-2.625 5.125 -2.625 5.125 -5 5 C-5 4.01 -5 3.02 -5 2 C-2.525 2.495 -2.525 2.495 0 3 C0 2.01 0 1.02 0 0 Z " fill="#F3614F" transform="translate(78,62)"/>
<path d="M0 0 C0.66 0.33 1.32 0.66 2 1 C2 1.66 2 2.32 2 3 C1.01 3 0.02 3 -1 3 C-1 3.99 -1 4.98 -1 6 C-1.99 6 -2.98 6 -4 6 C-4 4.68 -4 3.36 -4 2 C-2.125 0.9375 -2.125 0.9375 0 0 Z " fill="#F25947" transform="translate(209,61)"/>
<path d="M0 0 C0.99 0 1.98 0 3 0 C3 0.66 3 1.32 3 2 C3.66 2 4.32 2 5 2 C5 3.32 5 4.64 5 6 C4.01 6 3.02 6 2 6 C2 5.34 2 4.68 2 4 C1.34 4 0.68 4 0 4 C0 2.68 0 1.36 0 0 Z " fill="#E98C86" transform="translate(152,63)"/>
<path d="M0 0 C2.31 0 4.62 0 7 0 C7.33 1.32 7.66 2.64 8 4 C7.34 3.67 6.68 3.34 6 3 C5.67 3.33 5.34 3.66 5 4 C4.34 4 3.68 4 3 4 C1.375 2 1.375 2 0 0 Z " fill="#EA7569" transform="translate(209,60)"/>
<path d="M0 0 C3 3.75 3 3.75 3 6 C1.35 6.33 -0.3 6.66 -2 7 C-1.34 4.69 -0.68 2.38 0 0 Z " fill="#ED5E4C" transform="translate(144,60)"/>
</svg>
