<!DOCTYPE svg PUBLIC "-//W3C//DTD SVG 1.1//EN" "http://www.w3.org/Graphics/SVG/1.1/DTD/svg11.dtd">

<!-- Uploaded to: SVG Repo, www.svgrepo.com, Transformed by: SVG Repo Mixer Tools -->
<svg width="209px" height="strokeWidthox="-2.5 -2.5 30.00 30.00" fill="none" xmlns="http://www.w3.org/2000/svg" transform="matrix(1, 0, 0, 1, 0, 0)rotate(0)">
strokeWidth
<g id="SVGRepo_bgCarrier" stroke-width="0"/>strokeWidthstrokeWidth

<g id="SVGRepo_tracerCarrier" strokeLinecap="round" strokeLinejoin="round" stroke="#CCCCCC" stroke-width="0.3"/>

<g id="SVGRepo_iconCarrier"> <path d="M12 22.4199C17.5228 22.4199 22 17.9428 22 12.4199C22 6.89707 17.5228 2.41992 12 2.41992C6.47715 2.41992 2 6.89707 2 12.4199C2 17.9428 6.47715 22.4199 12 22.4199Z" stroke="#000000" stroke-width="0.6" strokeLinecap="round" strokeLinejoin="round"/> <path d="M10.5596 8.41992L13.6196 11.29C13.778 11.4326 13.9047 11.6068 13.9914 11.8015C14.0781 11.9962 14.123 12.2068 14.123 12.4199C14.123 12.633 14.0781 12.8439 13.9914 13.0386C13.9047 13.2332 13.778 13.4075 13.6196 13.55L10.5596 16.4199" stroke="#000000" stroke-width="0.6" strokeLinecap="round" strokeLinejoin="round"/> </g>

</svg>